<?xml version="1.0" encoding="utf-8"?>
<!-- Generator: Adobe Illustrator 24.1.2, SVG Export Plug-In . SVG Version: 6.00 Build 0)  -->
<svg version="1.1" id="Layer_1" xmlns="http://www.w3.org/2000/svg" xmlns:xlink="http://www.w3.org/1999/xlink" x="0px" y="0px"
	 viewBox="0 0 317.1 309" style="enable-background:new 0 0 317.1 309;" xml:space="preserve">
<style type="text/css">
	.st0{enable-background:new    ;}
	.st1{fill:#8F897F;}
	.st2{fill:url(#SVGID_1_);}
	.st3{fill-rule:evenodd;clip-rule:evenodd;fill:#8F897F;}
</style>
<g class="st0">
	<path class="st1" d="M38.8,181c4.7-10.5,22.6-59.6,46-59.6c2.1,0,4.4,0.4,6.7,1.3c5.4,3.9,7.6,11.9,7.6,18.9c0,2-0.3,4.2-0.6,5.9
		c12.2-3.9,24.1-6.9,35.9-6.9c1.6,0,3.1,0,4.9,0.1c1.3,0.1,1.7,1.1,1.7,2.3c0,1.9-1.4,4.2-3.1,4.2h-0.3c-3.9-0.4-7.6-0.7-11.3-0.7
		c-9.2,0-18,1.6-28.1,5.2c-4.9,14-17.9,31.4-34.2,33.1c-1,0.1-1.9,0.1-2.6,0.1c-4,0-6.2-1.1-7.7-2.4c-1.4-1-2-2.3-2-3.6
		c0-9.9,35.6-26.5,39.9-28.9c0.1-0.3,0.3-0.7,0.4-1c0.1-1,0.3-2.3,0.3-3.7c0-5.6-1.6-13.7-4.9-16c-2.3-1.9-4.7-2.7-7-2.7
		c-25.6,0-53,103.5-60.3,133.4c-0.1,0.4-0.1,1-0.1,1.6c0,1.3,0.1,3,0.1,4.2v0.9c-0.1,0.6-1.6,1-3,1c-1.9,0-4.2-0.7-4.2-2.9
		c0-0.3,0-0.6,0.1-0.9c9.7-48.2,19.6-84.6,32.8-133.4l-0.4-9.3c0.4-3.4,3.3-4.9,5.9-4.9c2.4,0,4.7,1.3,4.7,3.1v0.6L38.8,181z
		 M89.9,154.8c-12.5,4.4-34.5,18.8-34.5,23.5c0,0.4,0.3,0.7,0.6,1c0.7,0.6,1.1,1.6,3.9,1.6c0.6,0,1-0.1,1.7-0.1
		C73.9,179.6,85.1,165.7,89.9,154.8z"/>
</g>
<g>
	<path class="st1" d="M134.5,177.1c0,0.6,0.1,0.9,0.3,0.9c0.1,0,0.3-0.1,0.4-0.3c3.6-2.7,31.6-56.7,34.4-62.1
		c0.1-0.1,1.6-3.9,1.6-3.9c0.6-0.4,1.7-0.6,3-0.6c2.9,0,6.6,1,6.6,3.1v0.3l-2.1,4.2c-0.7,2-3.4,7.4-3.4,12.9c0,6.7,4.2,13.5,21,13.5
		c2.4,0,5-0.1,7.9-0.4c2,0.6,2.9,1.9,2.9,3c0,1.3-1,2.6-2.9,2.7c-25.2,0-32.9-9.3-34.2-18.8c-12.3,22.5-33.5,59.1-41.5,59.1
		c-0.4,0-0.9-0.1-1.1-0.3c-3-0.6-4-5.2-4-11.7c0-15,6-40.8,10-52.7c1-2.7,2.9-3.7,5-3.7c3.4,0,7.3,3,8.7,6.3
		C147,128.7,134.5,170.5,134.5,177.1z"/>
</g>
<g>
	
		<linearGradient id="SVGID_1_" gradientUnits="userSpaceOnUse" x1="67.9" y1="160.8205" x2="257.8" y2="160.8205" gradientTransform="matrix(1 0 0 -1 0 309.8898)">
		<stop  offset="0" style="stop-color:#FFFFFF"/>
		<stop  offset="0.1041" style="stop-color:#FBF9EB"/>
		<stop  offset="0.402" style="stop-color:#F2E9B7"/>
		<stop  offset="0.6614" style="stop-color:#ECDE92"/>
		<stop  offset="0.8694" style="stop-color:#E7D77A"/>
		<stop  offset="1" style="stop-color:#E6D472"/>
	</linearGradient>
	<path class="st2" d="M257.7,157.3c-1.1,5.9-1.9,11.9-3.3,17.7c-11.3,44.5-47.6,76.3-93.4,80.9c-36.7,3.7-67.5-8.9-92.2-36.2
		c-0.4-0.4-0.7-0.9-0.9-1.4c8.9,7.9,18.8,14.2,29.9,18.4c23.7,8.9,47.8,12.9,72.4,4.4c37.5-12.9,60.5-39,66.3-78.3
		c7.8-52.3-26.7-99.8-78.8-108.6c-27.1-4.6-53.5-1.2-77.3,14.3c-0.4,0.3-0.8,0.5-1.2,0.7c-0.1,0-0.2,0-0.8-0.1c1.1-1,2-1.8,2.9-2.6
		c62.3-52.2,158.9-17.9,174.4,61.9c0.8,4,1.4,8.1,2.1,12.1C257.7,145.9,257.7,151.6,257.7,157.3z"/>
</g>
<path class="st1" d="M201.7,144.8c0,0,29.1-1.6,84.6-17.9l0.7,3.4c0,0-37.1,17.2-84.3,19.9L201.7,144.8z"/>
<g>
	<path class="st3" d="M304.3,125.8c1.3,0,1.3-1.5,1.3-1.5c-0.1-1.5-1.7-1.7-1.7-1.7l-26,0.8c0,0-1,0-0.9,0.9c0,0-0.1,0.7,0.9,1
		l11.1,4.4"/>
	<path class="st3" d="M303.6,123c1.2-0.6,1.8,0.7,1.8,0.7c0.7,1.4-0.7,2.3-0.7,2.3l-23.3,11.6c0,0-0.8,0.4-1.2-0.4
		c0,0-0.4-0.6,0.4-1.3l7.6-9.1"/>
</g>
</svg>
